PathFileType	4	(X/Y/Z)	Patient4_TMGait_0pt4_01_left_22.trc.trc
DataRate	CameraRate	NumFrames	NumMarkers	Units	OrigDataRate	OrigDataStartFrame	OrigNumFrames
80.000000000000	80.000000000000	4	33	mm	80.000000000000	89	       141
Frame#	Time	Sacral			L.Shoulder			Chest			R.Shoulder			Neck			R.ASIS			L.ASIS			R.Thigh.Superior			R.Thigh.Lateral			R.Thigh.Inferior			R.Patella			L.Thigh.Superior			L.Thigh.Lateral			L.Thigh.Inferior			L.Patella			L.Shank.Superior			L.Shank.Lateral			L.Shank.Inferior			R.Shank.Superior			R.Shank.Lateral			R.Shank.Inferior			R.Heel			R.Midfoot.Superior			R.Midfoot.Lateral			R.Toe			L.Heel			L.Midfoot.Lateral			L.Midfoot.Superior			L.Toe			L.Elbow			L.Wrist			R.Elbow			R.Wrist			
		X1	Y1	Z1	X2	Y2	Z2	X3	Y3	Z3	X4	Y4	Z4	X5	Y5	Z5	X6	Y6	Z6	X7	Y7	Z7	X8	Y8	Z8	X9	Y9	Z9	X10	Y10	Z10	X11	Y11	Z11	X12	Y12	Z12	X13	Y13	Z13	X14	Y14	Z14	X15	Y15	Z15	X16	Y16	Z16	X17	Y17	Z17	X18	Y18	Z18	X19	Y19	Z19	X20	Y20	Z20	X21	Y21	Z21	X22	Y22	Z22	X23	Y23	Z23	X24	Y24	Z24	X25	Y25	Z25	X26	Y26	Z26	X27	Y27	Z27	X28	Y28	Z28	X29	Y29	Z29	X30	Y30	Z30	X31	Y31	Z31	X32	Y32	Z32	X33	Y33	Z33	

89	27.510000000000	669.159811102240	996.354482669588	447.831440061671	832.874625482110	1436.969599742447	273.457698430410	932.987946777068	1369.963237058805	437.751420018342	837.473648491554	1438.781329237993	607.973229177906	822.024594216345	1495.852048748985	428.871016962853	895.991481800575	951.635847786549	575.601969245982	891.237479002023	961.189006978203	300.303975131259	946.246095395495	746.733604171470	549.627198096269	868.182959803526	634.244429187107	610.949491835725	948.650370382242	584.726372755770	532.753167062176	950.838415126383	498.496433760785	539.758684034426	930.028462080683	737.526638793092	326.791898982709	839.726263129103	624.278652315244	258.888324736497	924.032966263318	539.668459007477	316.938734026879	916.821223580428	457.014438046989	313.960809722690	854.877664379214	396.827244529134	307.554166159112	720.842416243680	335.133837770561	261.255144198295	724.502880563134	206.091536289431	317.668576038380	926.314535054082	408.379778372177	550.087189489149	855.876011937098	303.485828425550	610.436189133467	905.394895951624	209.118778200423	553.420637269138	780.241937953714	41.434089435838	516.685390076172	946.021150009962	97.808607661074	567.752651072738	856.035602865518	36.327273210911	599.922860438394	1063.446028576079	48.686628425605	608.876623199009	549.149954882609	104.440260698142	360.992077481032	612.651508963521	73.826525084048	279.218749326701	711.695039876916	107.766572372225	297.440076321837	813.489086165461	34.938153414659	267.075086471368	834.537812569881	1098.798260733139	128.785392816791	1034.675248704799	932.271863316738	143.085243036382	832.409273399154	1086.386659760989	721.427182049740	959.820145241213	858.405801963713	711.740836443774	
90	27.522500000000	668.993418045505	996.388633360079	451.434845531013	831.699791375635	1437.159426029550	276.171979875043	933.044566329066	1369.962164067516	439.662845703147	838.954479135829	1438.795024825200	610.618118481223	822.262944814966	1495.945775431459	431.720204118728	896.373168916670	951.720367967546	577.647554890482	890.221917548397	961.365403917265	302.442456170480	945.044266063527	746.179262452007	551.978073250044	865.962823446270	634.148535197263	612.840336603016	946.092810300616	584.214979475671	534.631262550383	947.636640805500	497.956032697333	541.249314673535	934.258610957286	740.022847442456	329.096787298029	848.947592894731	624.541193604949	260.108143674404	935.856953707255	541.910063050261	318.282651409512	930.017999686397	458.077954400684	314.457821666885	866.219001570962	397.879174957367	308.075805667762	730.071261836349	340.768942687481	261.920070831071	729.727781771893	211.494180439209	317.621231207105	922.721202698678	407.952795987365	551.344212102330	851.841112630598	303.167125430152	611.207124743137	900.972019978434	208.802126638072	553.882085982436	775.251242562558	41.393088027575	516.761396295878	941.088578540596	97.714110955181	567.884254353927	851.043783260089	36.284393945761	600.048066042549	1058.500985311222	48.503620405728	608.998339824883	550.727923750112	118.641282994096	361.161527096000	612.016315391927	83.945910091949	279.396867769509	712.830636175636	111.730938525312	297.113758813544	808.803502126919	34.034768267586	267.100963531824	830.787230477326	1098.406524435118	132.435595610519	1026.142900998082	925.346254648552	141.342014273607	842.519514188779	1086.427322055735	724.549448873853	981.163939400986	865.432868485138	710.780538835137	
91	27.535000000000	668.680514152279	996.410162872072	454.953658318622	830.574847022461	1437.221621283403	278.728283564918	933.165262994777	1369.825408572580	441.398265035931	840.577935730922	1438.750337299757	613.079519493889	822.592763120616	1495.957222576832	434.404277591727	896.575570893409	951.682346922755	579.614372444174	889.039014920769	961.421530892858	304.544138266149	943.754108115058	745.603940578581	554.199353844684	863.768932042563	634.031098341142	614.712805813685	943.463295820820	583.687605548858	536.389755754731	944.353896842149	497.400567209402	542.702137651529	938.385771715408	742.793740072566	331.389647842880	858.305463103531	625.221123947506	261.183306344997	947.632166197589	544.741034276671	319.676446688967	943.340837689599	459.833770279408	315.162036575478	877.941137533598	399.447188139478	308.751408557456	739.925775798642	346.780395807512	262.595167174715	735.677548181201	217.448771792089	317.825021949066	919.071029799774	407.513827325182	552.566594303329	847.777217894188	302.844128712022	612.007016944925	896.495181651249	208.481334474283	554.326808591735	770.190964722947	41.365809322083	516.834911807590	936.106517461359	97.595922440649	568.017482150602	845.982781999690	36.231880145686	600.167233981791	1053.499968328118	48.254765817338	609.108904540897	553.376146792856	133.689680760324	361.582441479170	612.246660878802	95.084697734139	279.756916786558	714.640323000486	116.384043482987	297.082457745736	804.405232774509	33.093807243213	267.197640110825	826.872238257246	1097.840324500979	136.055555499072	1016.770346800320	918.112540752745	139.854544212177	852.567580724191	1086.743360361901	727.596105688582	1002.207781075329	873.505978092090	709.419782820812	
92	27.547500000000	668.222808670321	996.436537382016	458.358663552139	829.535645883140	1437.166940216310	281.099807777403	933.356343827538	1369.567582338449	442.945710510504	842.325776884296	1438.669647748194	615.333831735625	823.025684898914	1495.902859193044	436.886619106543	896.620997159165	951.544249542938	581.500978463440	887.692305758136	961.376435828167	306.608247787617	942.437396864851	745.032174366759	556.248161495715	861.680751548795	633.898673909585	616.537365493791	940.842712052946	583.156092440539	538.000567791735	941.083500095655	496.839937482085	544.086716268024	942.308348204362	745.837477802620	333.659226556828	867.555926220113	626.365554294025	262.151781195352	959.113053191147	548.171004769286	321.100221574549	956.548190832421	462.291062277379	316.043579374462	889.799308206012	401.551044280254	309.581269595335	750.165165468371	353.063154710711	263.321717526606	742.236021269660	223.811594701553	318.308518371849	915.444917993299	407.068454030010	553.727462850017	843.755838961261	302.532518360396	612.824491867824	892.015268451762	208.162129123255	554.745414545077	765.089040858389	41.352679992363	516.912206040419	931.096479303687	97.466579913514	568.149236426863	840.880685039450	36.178025744983	600.284198784428	1048.466823347685	47.968025836055	609.209774164827	557.073987167763	149.074152401823	362.281686975721	613.437988122966	106.870068458569	280.328180318432	717.167356939577	121.636820918330	297.373762055677	800.580868166753	32.190094104961	267.385353122946	822.812266212954	1097.109618747731	139.647069985053	1006.560978198502	910.631153741164	138.649865426168	862.512788204540	1087.332604270763	730.520154388463	1022.800159051550	882.608244649076	707.655642748232	
